<svg width="720" height="118" viewBox="0 0 720 118" fill="none" xmlns="http://www.w3.org/2000/svg">
<g filter="url(#filter0_d_31_3)">
<path d="M21.4943 7.9091H49.358L63.4489 65.5455H64.5398L97.7216 7.9091H125.585L110.131 101H88.2216L97.7216 43.8182H96.9489L65.2216 100.409H51.267L38.358 43.5H37.5852L27.9489 101H6.03979L21.4943 7.9091ZM143.665 102.182C139.241 102.182 135.422 101.439 132.21 99.9545C129.028 98.4394 126.695 96.1515 125.21 93.0909C123.756 90.0303 123.407 86.2121 124.165 81.6364C124.831 77.7576 126.059 74.5 127.847 71.8636C129.665 69.197 131.892 67.0303 134.528 65.3636C137.195 63.697 140.165 62.4242 143.438 61.5455C146.71 60.6667 150.134 60.0758 153.71 59.7727C157.71 59.4091 160.953 59.0152 163.438 58.5909C165.953 58.1667 167.831 57.5758 169.074 56.8182C170.316 56.0303 171.074 54.9394 171.347 53.5455V53.3182C171.71 50.9848 171.21 49.1818 169.847 47.9091C168.483 46.6364 166.438 46 163.71 46C160.801 46 158.316 46.6364 156.256 47.9091C154.195 49.1818 152.756 50.9394 151.938 53.1818L131.574 52.4545C132.847 48.2121 135.028 44.4242 138.119 41.0909C141.21 37.7273 145.134 35.0909 149.892 33.1818C154.68 31.2424 160.21 30.2727 166.483 30.2727C170.907 30.2727 174.907 30.803 178.483 31.8636C182.059 32.8939 185.074 34.4091 187.528 36.4091C190.013 38.3788 191.786 40.803 192.847 43.6818C193.907 46.5606 194.134 49.8485 193.528 53.5455L185.574 101H164.665L166.301 91.2727H165.756C164.119 93.6364 162.195 95.6364 159.983 97.2727C157.801 98.9091 155.347 100.136 152.619 100.955C149.892 101.773 146.907 102.182 143.665 102.182ZM153.028 87.6364C155.362 87.6364 157.574 87.1515 159.665 86.1818C161.756 85.2121 163.513 83.8788 164.938 82.1818C166.392 80.4545 167.316 78.4545 167.71 76.1818L168.756 69.5455C168.119 69.8788 167.316 70.1818 166.347 70.4545C165.377 70.7273 164.347 70.9848 163.256 71.2273C162.165 71.4394 161.044 71.6515 159.892 71.8636C158.771 72.0455 157.695 72.2121 156.665 72.3636C154.483 72.697 152.589 73.2121 150.983 73.9091C149.377 74.6061 148.089 75.5152 147.119 76.6364C146.18 77.7273 145.604 79.0303 145.392 80.5455C145.028 82.8182 145.559 84.5758 146.983 85.8182C148.407 87.0303 150.422 87.6364 153.028 87.6364ZM222.21 82.6818L226.71 56.1818H229.756L253.665 31.1818H278.847L243.756 67H237.892L222.21 82.6818ZM199.165 101L214.619 7.9091H236.847L221.392 101H199.165ZM242.528 101L229.074 72L246.392 56.2273L268.21 101H242.528ZM304.744 102.318C297.441 102.318 291.381 100.879 286.562 98C281.775 95.0909 278.411 90.9545 276.472 85.5909C274.532 80.197 274.184 73.7879 275.426 66.3636C276.638 59.1515 279.108 52.8485 282.835 47.4545C286.593 42.0303 291.32 37.8182 297.017 34.8182C302.714 31.7879 309.062 30.2727 316.062 30.2727C321.032 30.2727 325.441 31.0455 329.29 32.5909C333.138 34.1364 336.32 36.4394 338.835 39.5C341.35 42.5303 343.063 46.2576 343.972 50.6818C344.881 55.1061 344.85 60.1818 343.881 65.9091L343.017 71.4545H282.381L284.426 58.5455H324.426C324.79 56.1818 324.593 54.0758 323.835 52.2273C323.078 50.3788 321.85 48.9394 320.153 47.9091C318.487 46.8485 316.441 46.3182 314.017 46.3182C311.563 46.3182 309.259 46.8939 307.108 48.0455C304.987 49.1667 303.184 50.6818 301.699 52.5909C300.214 54.5 299.244 56.6515 298.79 59.0455L296.381 72.2727C295.896 75.2121 296.032 77.7273 296.79 79.8182C297.547 81.9091 298.85 83.5152 300.699 84.6364C302.547 85.7273 304.926 86.2727 307.835 86.2727C309.775 86.2727 311.593 86.0152 313.29 85.5C314.987 84.9545 316.502 84.1515 317.835 83.0909C319.199 82 320.305 80.6818 321.153 79.1364L341.426 79.7273C339.79 84.303 337.259 88.2879 333.835 91.6818C330.411 95.0455 326.229 97.6667 321.29 99.5455C316.381 101.394 310.866 102.318 304.744 102.318ZM368.915 102.182C364.491 102.182 360.672 101.439 357.46 99.9545C354.278 98.4394 351.945 96.1515 350.46 93.0909C349.006 90.0303 348.657 86.2121 349.415 81.6364C350.081 77.7576 351.309 74.5 353.097 71.8636C354.915 69.197 357.142 67.0303 359.778 65.3636C362.445 63.697 365.415 62.4242 368.688 61.5455C371.96 60.6667 375.384 60.0758 378.96 59.7727C382.96 59.4091 386.203 59.0152 388.688 58.5909C391.203 58.1667 393.081 57.5758 394.324 56.8182C395.566 56.0303 396.324 54.9394 396.597 53.5455V53.3182C396.96 50.9848 396.46 49.1818 395.097 47.9091C393.733 46.6364 391.688 46 388.96 46C386.051 46 383.566 46.6364 381.506 47.9091C379.445 49.1818 378.006 50.9394 377.188 53.1818L356.824 52.4545C358.097 48.2121 360.278 44.4242 363.369 41.0909C366.46 37.7273 370.384 35.0909 375.142 33.1818C379.93 31.2424 385.46 30.2727 391.733 30.2727C396.157 30.2727 400.157 30.803 403.733 31.8636C407.309 32.8939 410.324 34.4091 412.778 36.4091C415.263 38.3788 417.036 40.803 418.097 43.6818C419.157 46.5606 419.384 49.8485 418.778 53.5455L410.824 101H389.915L391.551 91.2727H391.006C389.369 93.6364 387.445 95.6364 385.233 97.2727C383.051 98.9091 380.597 100.136 377.869 100.955C375.142 101.773 372.157 102.182 368.915 102.182ZM378.278 87.6364C380.612 87.6364 382.824 87.1515 384.915 86.1818C387.006 85.2121 388.763 83.8788 390.188 82.1818C391.642 80.4545 392.566 78.4545 392.96 76.1818L394.006 69.5455C393.369 69.8788 392.566 70.1818 391.597 70.4545C390.627 70.7273 389.597 70.9848 388.506 71.2273C387.415 71.4394 386.294 71.6515 385.142 71.8636C384.021 72.0455 382.945 72.2121 381.915 72.3636C379.733 72.697 377.839 73.2121 376.233 73.9091C374.627 74.6061 373.339 75.5152 372.369 76.6364C371.43 77.7273 370.854 79.0303 370.642 80.5455C370.278 82.8182 370.809 84.5758 372.233 85.8182C373.657 87.0303 375.672 87.6364 378.278 87.6364ZM465.324 67.5455H483.506L490.097 77.4091L498.369 89.0455L511.46 108.273H491.097L481.96 95.2273L476.778 85.9545L465.324 67.5455ZM519.778 55.9091C518.081 65.9394 514.748 74.4091 509.778 81.3182C504.839 88.197 498.824 93.4091 491.733 96.9545C484.672 100.5 477.081 102.273 468.96 102.273C460.384 102.273 452.96 100.364 446.688 96.5455C440.415 92.7273 435.854 87.1667 433.006 79.8636C430.188 72.5606 429.642 63.697 431.369 53.2727C433.006 43.2424 436.294 34.7576 441.233 27.8182C446.203 20.8788 452.248 15.6212 459.369 12.0454C466.521 8.4394 474.188 6.63637 482.369 6.63637C490.884 6.63637 498.263 8.56061 504.506 12.4091C510.778 16.2576 515.324 21.8485 518.142 29.1818C520.96 36.5151 521.506 45.4242 519.778 55.9091ZM497.278 53.2727C498.218 47.4242 498.218 42.5 497.278 38.5C496.369 34.5 494.581 31.4848 491.915 29.4545C489.248 27.3939 485.778 26.3636 481.506 26.3636C476.778 26.3636 472.506 27.5303 468.688 29.8636C464.9 32.1667 461.733 35.5303 459.188 39.9545C456.642 44.3485 454.869 49.6667 453.869 55.9091C452.839 61.8182 452.809 66.7424 453.778 70.6818C454.778 74.6212 456.642 77.5909 459.369 79.5909C462.097 81.5606 465.566 82.5455 469.778 82.5455C474.475 82.5455 478.703 81.4091 482.46 79.1364C486.218 76.8636 489.354 73.5455 491.869 69.1818C494.415 64.8182 496.218 59.5152 497.278 53.2727ZM575.835 70.8636L582.472 31.1818H604.653L593.017 101H571.835L573.972 88H573.244C571.093 92.2727 567.926 95.6667 563.744 98.1818C559.563 100.667 554.85 101.909 549.608 101.909C544.85 101.909 540.85 100.818 537.608 98.6364C534.366 96.4545 532.062 93.4091 530.699 89.5C529.366 85.5606 529.123 80.9545 529.972 75.6818L537.426 31.1818H559.653L552.972 71.3182C552.396 75.1061 552.896 78.0909 554.472 80.2727C556.078 82.4545 558.593 83.5455 562.017 83.5455C564.229 83.5455 566.305 83.0606 568.244 82.0909C570.184 81.0909 571.82 79.6515 573.153 77.7727C574.517 75.8636 575.411 73.5606 575.835 70.8636ZM607.165 101L618.801 31.1818H641.028L629.392 101H607.165ZM631.483 23C628.331 23 625.771 21.9545 623.801 19.8636C621.831 17.7727 621.059 15.2727 621.483 12.3636C621.907 9.42425 623.392 6.92425 625.938 4.86364C628.483 2.80304 631.316 1.77274 634.438 1.77274C637.589 1.77274 640.119 2.80304 642.028 4.86364C643.968 6.92425 644.725 9.42425 644.301 12.3636C643.938 15.2727 642.483 17.7727 639.938 19.8636C637.422 21.9545 634.604 23 631.483 23ZM643.858 101L645.903 88.3182L684.767 48.9091L684.949 48.4545H653.676L656.631 31.1818H714.358L712.176 45.0909L675.858 83.2727L675.676 83.7273H706.767L703.994 101H643.858Z" fill="white"/>
<mask id="mask0_31_3" style="mask-type:luminance" maskUnits="userSpaceOnUse" x="4" y="0" width="712" height="110">
<path d="M716 0H4V110H716V0Z" fill="white"/>
<path d="M21.4943 7.9091H49.358L63.4489 65.5455H64.5398L97.7216 7.9091H125.585L110.131 101H88.2216L97.7216 43.8182H96.9489L65.2216 100.409H51.267L38.358 43.5H37.5852L27.9489 101H6.03979L21.4943 7.9091ZM143.665 102.182C139.241 102.182 135.422 101.439 132.21 99.9545C129.028 98.4394 126.695 96.1515 125.21 93.0909C123.756 90.0303 123.407 86.2121 124.165 81.6364C124.831 77.7576 126.059 74.5 127.847 71.8636C129.665 69.197 131.892 67.0303 134.528 65.3636C137.195 63.697 140.165 62.4242 143.438 61.5455C146.71 60.6667 150.134 60.0758 153.71 59.7727C157.71 59.4091 160.953 59.0152 163.438 58.5909C165.953 58.1667 167.831 57.5758 169.074 56.8182C170.316 56.0303 171.074 54.9394 171.347 53.5455V53.3182C171.71 50.9848 171.21 49.1818 169.847 47.9091C168.483 46.6364 166.438 46 163.71 46C160.801 46 158.316 46.6364 156.256 47.9091C154.195 49.1818 152.756 50.9394 151.938 53.1818L131.574 52.4545C132.847 48.2121 135.028 44.4242 138.119 41.0909C141.21 37.7273 145.134 35.0909 149.892 33.1818C154.68 31.2424 160.21 30.2727 166.483 30.2727C170.907 30.2727 174.907 30.803 178.483 31.8636C182.059 32.8939 185.074 34.4091 187.528 36.4091C190.013 38.3788 191.786 40.803 192.847 43.6818C193.907 46.5606 194.134 49.8485 193.528 53.5455L185.574 101H164.665L166.301 91.2727H165.756C164.119 93.6364 162.195 95.6364 159.983 97.2727C157.801 98.9091 155.347 100.136 152.619 100.955C149.892 101.773 146.907 102.182 143.665 102.182ZM153.028 87.6364C155.362 87.6364 157.574 87.1515 159.665 86.1818C161.756 85.2121 163.513 83.8788 164.938 82.1818C166.392 80.4545 167.316 78.4545 167.71 76.1818L168.756 69.5455C168.119 69.8788 167.316 70.1818 166.347 70.4545C165.377 70.7273 164.347 70.9848 163.256 71.2273C162.165 71.4394 161.044 71.6515 159.892 71.8636C158.771 72.0455 157.695 72.2121 156.665 72.3636C154.483 72.697 152.589 73.2121 150.983 73.9091C149.377 74.6061 148.089 75.5152 147.119 76.6364C146.18 77.7273 145.604 79.0303 145.392 80.5455C145.028 82.8182 145.559 84.5758 146.983 85.8182C148.407 87.0303 150.422 87.6364 153.028 87.6364ZM222.21 82.6818L226.71 56.1818H229.756L253.665 31.1818H278.847L243.756 67H237.892L222.21 82.6818ZM199.165 101L214.619 7.9091H236.847L221.392 101H199.165ZM242.528 101L229.074 72L246.392 56.2273L268.21 101H242.528ZM304.744 102.318C297.441 102.318 291.381 100.879 286.562 98C281.775 95.0909 278.411 90.9545 276.472 85.5909C274.532 80.197 274.184 73.7879 275.426 66.3636C276.638 59.1515 279.108 52.8485 282.835 47.4545C286.593 42.0303 291.32 37.8182 297.017 34.8182C302.714 31.7879 309.062 30.2727 316.062 30.2727C321.032 30.2727 325.441 31.0455 329.29 32.5909C333.138 34.1364 336.32 36.4394 338.835 39.5C341.35 42.5303 343.063 46.2576 343.972 50.6818C344.881 55.1061 344.85 60.1818 343.881 65.9091L343.017 71.4545H282.381L284.426 58.5455H324.426C324.79 56.1818 324.593 54.0758 323.835 52.2273C323.078 50.3788 321.85 48.9394 320.153 47.9091C318.487 46.8485 316.441 46.3182 314.017 46.3182C311.563 46.3182 309.259 46.8939 307.108 48.0455C304.987 49.1667 303.184 50.6818 301.699 52.5909C300.214 54.5 299.244 56.6515 298.79 59.0455L296.381 72.2727C295.896 75.2121 296.032 77.7273 296.79 79.8182C297.547 81.9091 298.85 83.5152 300.699 84.6364C302.547 85.7273 304.926 86.2727 307.835 86.2727C309.775 86.2727 311.593 86.0152 313.29 85.5C314.987 84.9545 316.502 84.1515 317.835 83.0909C319.199 82 320.305 80.6818 321.153 79.1364L341.426 79.7273C339.79 84.303 337.259 88.2879 333.835 91.6818C330.411 95.0455 326.229 97.6667 321.29 99.5455C316.381 101.394 310.866 102.318 304.744 102.318ZM368.915 102.182C364.491 102.182 360.672 101.439 357.46 99.9545C354.278 98.4394 351.945 96.1515 350.46 93.0909C349.006 90.0303 348.657 86.2121 349.415 81.6364C350.081 77.7576 351.309 74.5 353.097 71.8636C354.915 69.197 357.142 67.0303 359.778 65.3636C362.445 63.697 365.415 62.4242 368.688 61.5455C371.96 60.6667 375.384 60.0758 378.96 59.7727C382.96 59.4091 386.203 59.0152 388.688 58.5909C391.203 58.1667 393.081 57.5758 394.324 56.8182C395.566 56.0303 396.324 54.9394 396.597 53.5455V53.3182C396.96 50.9848 396.46 49.1818 395.097 47.9091C393.733 46.6364 391.688 46 388.96 46C386.051 46 383.566 46.6364 381.506 47.9091C379.445 49.1818 378.006 50.9394 377.188 53.1818L356.824 52.4545C358.097 48.2121 360.278 44.4242 363.369 41.0909C366.46 37.7273 370.384 35.0909 375.142 33.1818C379.93 31.2424 385.46 30.2727 391.733 30.2727C396.157 30.2727 400.157 30.803 403.733 31.8636C407.309 32.8939 410.324 34.4091 412.778 36.4091C415.263 38.3788 417.036 40.803 418.097 43.6818C419.157 46.5606 419.384 49.8485 418.778 53.5455L410.824 101H389.915L391.551 91.2727H391.006C389.369 93.6364 387.445 95.6364 385.233 97.2727C383.051 98.9091 380.597 100.136 377.869 100.955C375.142 101.773 372.157 102.182 368.915 102.182ZM378.278 87.6364C380.612 87.6364 382.824 87.1515 384.915 86.1818C387.006 85.2121 388.763 83.8788 390.188 82.1818C391.642 80.4545 392.566 78.4545 392.96 76.1818L394.006 69.5455C393.369 69.8788 392.566 70.1818 391.597 70.4545C390.627 70.7273 389.597 70.9848 388.506 71.2273C387.415 71.4394 386.294 71.6515 385.142 71.8636C384.021 72.0455 382.945 72.2121 381.915 72.3636C379.733 72.697 377.839 73.2121 376.233 73.9091C374.627 74.6061 373.339 75.5152 372.369 76.6364C371.43 77.7273 370.854 79.0303 370.642 80.5455C370.278 82.8182 370.809 84.5758 372.233 85.8182C373.657 87.0303 375.672 87.6364 378.278 87.6364ZM465.324 67.5455H483.506L490.097 77.4091L498.369 89.0455L511.46 108.273H491.097L481.96 95.2273L476.778 85.9545L465.324 67.5455ZM519.778 55.9091C518.081 65.9394 514.748 74.4091 509.778 81.3182C504.839 88.197 498.824 93.4091 491.733 96.9545C484.672 100.5 477.081 102.273 468.96 102.273C460.384 102.273 452.96 100.364 446.688 96.5455C440.415 92.7273 435.854 87.1667 433.006 79.8636C430.188 72.5606 429.642 63.697 431.369 53.2727C433.006 43.2424 436.294 34.7576 441.233 27.8182C446.203 20.8788 452.248 15.6212 459.369 12.0454C466.521 8.4394 474.188 6.63637 482.369 6.63637C490.884 6.63637 498.263 8.56061 504.506 12.4091C510.778 16.2576 515.324 21.8485 518.142 29.1818C520.96 36.5151 521.506 45.4242 519.778 55.9091ZM497.278 53.2727C498.218 47.4242 498.218 42.5 497.278 38.5C496.369 34.5 494.581 31.4848 491.915 29.4545C489.248 27.3939 485.778 26.3636 481.506 26.3636C476.778 26.3636 472.506 27.5303 468.688 29.8636C464.9 32.1667 461.733 35.5303 459.188 39.9545C456.642 44.3485 454.869 49.6667 453.869 55.9091C452.839 61.8182 452.809 66.7424 453.778 70.6818C454.778 74.6212 456.642 77.5909 459.369 79.5909C462.097 81.5606 465.566 82.5455 469.778 82.5455C474.475 82.5455 478.703 81.4091 482.46 79.1364C486.218 76.8636 489.354 73.5455 491.869 69.1818C494.415 64.8182 496.218 59.5152 497.278 53.2727ZM575.835 70.8636L582.472 31.1818H604.653L593.017 101H571.835L573.972 88H573.244C571.093 92.2727 567.926 95.6667 563.744 98.1818C559.563 100.667 554.85 101.909 549.608 101.909C544.85 101.909 540.85 100.818 537.608 98.6364C534.366 96.4545 532.062 93.4091 530.699 89.5C529.366 85.5606 529.123 80.9545 529.972 75.6818L537.426 31.1818H559.653L552.972 71.3182C552.396 75.1061 552.896 78.0909 554.472 80.2727C556.078 82.4545 558.593 83.5455 562.017 83.5455C564.229 83.5455 566.305 83.0606 568.244 82.0909C570.184 81.0909 571.82 79.6515 573.153 77.7727C574.517 75.8636 575.411 73.5606 575.835 70.8636ZM607.165 101L618.801 31.1818H641.028L629.392 101H607.165ZM631.483 23C628.331 23 625.771 21.9545 623.801 19.8636C621.831 17.7727 621.059 15.2727 621.483 12.3636C621.907 9.42425 623.392 6.92425 625.938 4.86364C628.483 2.80304 631.316 1.77274 634.438 1.77274C637.589 1.77274 640.119 2.80304 642.028 4.86364C643.968 6.92425 644.725 9.42425 644.301 12.3636C643.938 15.2727 642.483 17.7727 639.938 19.8636C637.422 21.9545 634.604 23 631.483 23ZM643.858 101L645.903 88.3182L684.767 48.9091L684.949 48.4545H653.676L656.631 31.1818H714.358L712.176 45.0909L675.858 83.2727L675.676 83.7273H706.767L703.994 101H643.858Z" fill="black"/>
</mask>
<g mask="url(#mask0_31_3)">
<path d="M21.4943 7.9091V6.9091H20.6466L20.5078 7.74532L21.4943 7.9091ZM49.358 7.9091L50.3293 7.67161L50.1429 6.9091H49.358V7.9091ZM63.4489 65.5455L62.4775 65.7829L62.6639 66.5455H63.4489V65.5455ZM64.5398 65.5455V66.5455H65.118L65.4064 66.0444L64.5398 65.5455ZM97.7216 7.9091V6.9091H97.1434L96.855 7.41016L97.7216 7.9091ZM125.585 7.9091L126.572 8.07287L126.765 6.9091H125.585V7.9091ZM110.131 101V102H110.978L111.117 101.164L110.131 101ZM88.2216 101L87.2351 100.836L87.0418 102H88.2216V101ZM97.7216 43.8182L98.7081 43.9821L98.9014 42.8182H97.7216V43.8182ZM96.9489 43.8182V42.8182H96.3631L96.0766 43.3291L96.9489 43.8182ZM65.2216 100.409V101.409H65.8074L66.0939 100.898L65.2216 100.409ZM51.267 100.409L50.2918 100.63L50.4685 101.409H51.267V100.409ZM38.358 43.5L39.3332 43.2788L39.1565 42.5H38.358V43.5ZM37.5852 43.5V42.5H36.7389L36.599 43.3347L37.5852 43.5ZM27.9489 101V102H28.7952L28.9351 101.165L27.9489 101ZM6.03981 101L5.05331 100.836L4.86011 102H6.03981V101ZM21.4943 8.9091H49.358V6.9091H21.4943V8.9091ZM48.3866 8.14658L62.4775 65.7829L64.4203 65.308L50.3293 7.67161L48.3866 8.14658ZM63.4489 66.5455H64.5398V64.5455H63.4489V66.5455ZM65.4064 66.0444L98.5882 8.40803L96.855 7.41016L63.6731 65.0465L65.4064 66.0444ZM97.7216 8.9091H125.585V6.9091H97.7216V8.9091ZM124.599 7.74532L109.144 100.836L111.117 101.164L126.572 8.07287L124.599 7.74532ZM110.131 100H88.2216V102H110.131V100ZM89.2081 101.164L98.7081 43.9821L96.7351 43.6543L87.2351 100.836L89.2081 101.164ZM97.7216 42.8182H96.9489V44.8182H97.7216V42.8182ZM96.0766 43.3291L64.3493 99.9201L66.0939 100.898L97.8211 44.3072L96.0766 43.3291ZM65.2216 99.4091H51.267V101.409H65.2216V99.4091ZM52.2423 100.188L39.3332 43.2788L37.3827 43.7212L50.2918 100.63L52.2423 100.188ZM38.358 42.5H37.5852V44.5H38.358V42.5ZM36.599 43.3347L26.9626 100.835L28.9351 101.165L38.5715 43.6653L36.599 43.3347ZM27.9489 100H6.03981V102H27.9489V100ZM7.02631 101.164L22.4808 8.07287L20.5078 7.74532L5.05331 100.836L7.02631 101.164ZM132.21 99.9545L131.78 100.857L131.791 100.862L132.21 99.9545ZM125.21 93.0909L124.307 93.5202L124.311 93.5274L125.21 93.0909ZM124.165 81.6364L123.179 81.467L123.178 81.473L124.165 81.6364ZM127.847 71.8636L127.02 71.3003L127.019 71.3024L127.847 71.8636ZM134.528 65.3636L133.998 64.5156L133.994 64.5184L134.528 65.3636ZM153.71 59.7727L153.795 60.7692L153.801 60.7686L153.71 59.7727ZM163.438 58.5909L163.271 57.6048L163.269 57.6052L163.438 58.5909ZM169.074 56.8182L169.594 57.672L169.602 57.6674L169.609 57.6627L169.074 56.8182ZM171.347 53.5455L172.328 53.7375L172.347 53.6424V53.5455H171.347ZM171.347 53.3182L170.359 53.1642L170.347 53.2407V53.3182H171.347ZM151.938 53.1818L151.902 54.1812L152.628 54.2071L152.877 53.5246L151.938 53.1818ZM131.574 52.4545L130.616 52.1672L130.244 53.4077L131.538 53.4539L131.574 52.4545ZM138.119 41.0909L138.853 41.7709L138.856 41.7675L138.119 41.0909ZM149.892 33.1818L150.264 34.1099L150.267 34.1087L149.892 33.1818ZM178.483 31.8636L178.199 32.8224L178.206 32.8245L178.483 31.8636ZM187.528 36.4091L186.897 37.1844L186.907 37.1927L187.528 36.4091ZM193.528 53.5455L194.515 53.7108V53.7072L193.528 53.5455ZM185.574 101V102H186.42L186.56 101.165L185.574 101ZM164.665 101L163.679 100.834L163.482 102H164.665V101ZM166.301 91.2727L167.287 91.4386L167.483 90.2727H166.301V91.2727ZM165.756 91.2727V90.2727H165.232L164.933 90.7035L165.756 91.2727ZM159.983 97.2727L159.388 96.4688L159.383 96.4727L159.983 97.2727ZM164.938 82.1818L164.173 81.5377L164.172 81.5389L164.938 82.1818ZM167.71 76.1818L168.696 76.3526L168.697 76.345L168.698 76.3374L167.71 76.1818ZM168.756 69.5455L169.743 69.7011L170.053 67.7371L168.292 68.6596L168.756 69.5455ZM163.256 71.2273L163.447 72.2089L163.46 72.2063L163.473 72.2035L163.256 71.2273ZM159.892 71.8636L160.052 72.8507L160.063 72.849L160.073 72.8471L159.892 71.8636ZM156.665 72.3636L156.519 71.3743L156.514 71.3751L156.665 72.3636ZM147.119 76.6364L146.363 75.9822L146.362 75.9838L147.119 76.6364ZM145.392 80.5455L146.379 80.7034L146.381 80.6938L146.382 80.6841L145.392 80.5455ZM146.983 85.8182L146.326 86.5718L146.335 86.5797L146.983 85.8182ZM143.665 101.182C139.35 101.182 135.682 100.458 132.63 99.0468L131.791 100.862C135.163 102.421 139.131 103.182 143.665 103.182V101.182ZM132.64 99.0517C129.655 97.6304 127.492 95.5029 126.11 92.6544L124.311 93.5274C125.898 96.8001 128.401 99.2484 131.78 100.857L132.64 99.0517ZM126.113 92.6617C124.773 89.8422 124.415 86.2465 125.151 81.7997L123.178 81.473C122.399 86.1778 122.738 90.2185 124.307 93.5202L126.113 92.6617ZM125.15 81.8058C125.798 78.0351 126.983 74.919 128.674 72.4249L127.019 71.3024C125.135 74.081 123.864 77.48 123.179 81.467L125.15 81.8058ZM128.673 72.427C130.417 69.8692 132.546 67.8 135.063 66.2089L133.994 64.5184C131.238 66.2606 128.913 68.5247 127.02 71.3003L128.673 72.427ZM135.058 66.2116C137.635 64.6013 140.512 63.3664 143.697 62.5112L143.178 60.5797C139.817 61.4821 136.755 62.7926 133.998 64.5156L135.058 66.2116ZM143.697 62.5112C146.909 61.6487 150.275 61.0676 153.795 60.7692L153.626 58.7763C149.994 59.084 146.511 59.6846 143.178 60.5797L143.697 62.5112ZM153.801 60.7686C157.814 60.4038 161.085 60.0071 163.606 59.5766L163.269 57.6052C160.821 58.0232 157.607 58.4144 153.62 58.7768L153.801 60.7686ZM163.604 59.577C166.164 59.1451 168.191 58.5279 169.594 57.672L168.553 55.9644C167.472 56.6236 165.741 57.1883 163.271 57.6048L163.604 59.577ZM169.609 57.6627C171.074 56.7337 172 55.4116 172.328 53.7375L170.365 53.3534C170.147 54.4672 169.558 55.3269 168.538 55.9737L169.609 57.6627ZM172.347 53.5455V53.3182H170.347V53.5455H172.347ZM172.335 53.4722C172.734 50.9094 172.199 48.7371 170.529 47.178L169.164 48.6401C170.221 49.6266 170.686 51.0603 170.359 53.1642L172.335 53.4722ZM170.529 47.178C168.91 45.6671 166.575 45 163.71 45V47C166.3 47 168.056 47.6056 169.164 48.6401L170.529 47.178ZM163.71 45C160.653 45 157.978 45.67 155.73 47.0583L156.781 48.7599C158.655 47.6027 160.949 47 163.71 47V45ZM155.73 47.0583C153.482 48.4472 151.894 50.3823 150.998 52.8391L152.877 53.5246C153.617 51.4965 154.909 49.9164 156.781 48.7599L155.73 47.0583ZM151.973 52.1825L131.61 51.4552L131.538 53.4539L151.902 54.1812L151.973 52.1825ZM132.532 52.7419C133.759 48.6497 135.863 44.9952 138.853 41.7709L137.386 40.411C134.194 43.8532 131.934 47.7745 130.616 52.1672L132.532 52.7419ZM138.856 41.7675C141.834 38.5266 145.628 35.9702 150.264 34.1099L149.52 32.2537C144.641 34.2116 140.587 36.928 137.383 40.4143L138.856 41.7675ZM150.267 34.1087C154.913 32.2267 160.312 31.2727 166.483 31.2727V29.2727C160.108 29.2727 154.446 30.2581 149.517 32.255L150.267 34.1087ZM166.483 31.2727C170.828 31.2727 174.73 31.7938 178.199 32.8224L178.767 30.9049C175.084 29.8124 170.986 29.2727 166.483 29.2727V31.2727ZM178.206 32.8245C181.675 33.824 184.563 35.2832 186.897 37.1844L188.16 35.6339C185.584 33.5351 182.443 31.9639 178.76 30.9027L178.206 32.8245ZM186.907 37.1927C189.253 39.0524 190.913 41.327 191.908 44.0275L193.785 43.3361C192.659 40.279 190.773 37.7052 188.15 35.6254L186.907 37.1927ZM191.908 44.0275C192.897 46.7119 193.126 49.8197 192.542 53.3837L194.515 53.7072C195.143 49.8772 194.917 46.4093 193.785 43.3361L191.908 44.0275ZM192.542 53.3801L184.588 100.835L186.56 101.165L194.515 53.7108L192.542 53.3801ZM185.574 100H164.665V102H185.574V100ZM165.651 101.166L167.287 91.4386L165.315 91.1068L163.679 100.834L165.651 101.166ZM166.301 90.2727H165.756V92.2727H166.301V90.2727ZM164.933 90.7035C163.357 92.981 161.508 94.9005 159.388 96.4688L160.578 98.0767C162.882 96.3722 164.882 94.2917 166.578 91.8419L164.933 90.7035ZM159.383 96.4727C157.299 98.0354 154.952 99.2108 152.332 99.9967L152.907 101.912C155.742 101.062 158.303 99.7828 160.583 98.0727L159.383 96.4727ZM152.332 99.9967C149.71 100.783 146.823 101.182 143.665 101.182V103.182C146.991 103.182 150.074 102.762 152.907 101.912L152.332 99.9967ZM153.028 88.6364C155.505 88.6364 157.861 88.1206 160.085 87.089L159.244 85.2746C157.287 86.1824 155.218 86.6364 153.028 86.6364V88.6364ZM160.085 87.089C162.304 86.0602 164.181 84.6386 165.703 82.8247L164.172 81.5389C162.845 83.119 161.207 84.3641 159.244 85.2746L160.085 87.089ZM165.702 82.826C167.274 80.9602 168.272 78.7959 168.696 76.3526L166.725 76.011C166.361 78.1132 165.51 79.9489 164.173 81.5377L165.702 82.826ZM168.698 76.3374L169.743 69.7011L167.768 69.3898L166.722 76.0262L168.698 76.3374ZM168.292 68.6596C167.736 68.9507 167.003 69.2311 166.076 69.4919L166.617 71.4172C167.629 71.1325 168.503 70.8068 169.22 70.4313L168.292 68.6596ZM166.076 69.4919C165.126 69.7591 164.114 70.0122 163.039 70.2511L163.473 72.2035C164.58 71.9575 165.628 71.6954 166.617 71.4172L166.076 69.4919ZM163.065 70.2457C161.977 70.4571 160.859 70.6686 159.711 70.8802L160.073 72.8471C161.228 72.6344 162.352 72.4217 163.447 72.2089L163.065 70.2457ZM159.732 70.8765C158.615 71.0576 157.544 71.2235 156.519 71.3743L156.81 73.353C157.846 73.2007 158.926 73.0333 160.052 72.8507L159.732 70.8765ZM156.514 71.3751C154.268 71.7182 152.287 72.253 150.585 72.9917L151.381 74.8264C152.891 74.1713 154.698 73.6757 156.816 73.3522L156.514 71.3751ZM150.585 72.9917C148.866 73.7377 147.447 74.7287 146.363 75.9822L147.876 77.2905C148.731 76.3016 149.888 75.4744 151.381 74.8264L150.585 72.9917ZM146.362 75.9838C145.289 77.2294 144.639 78.7141 144.402 80.4068L146.382 80.6841C146.57 79.3465 147.071 78.2251 147.877 77.2889L146.362 75.9838ZM144.405 80.3875C144 82.9148 144.582 85.051 146.326 86.5718L147.64 85.0646C146.535 84.1006 146.057 82.7215 146.379 80.7034L144.405 80.3875ZM146.335 86.5797C148 87.9968 150.278 88.6364 153.028 88.6364V86.6364C150.567 86.6364 148.814 86.0638 147.631 85.0566L146.335 86.5797ZM222.21 82.6818L221.224 82.5144L220.699 85.6071L222.917 83.3889L222.21 82.6818ZM226.71 56.1818V55.1818H225.866L225.724 56.0144L226.71 56.1818ZM229.756 56.1818V57.1818H230.183L230.478 56.873L229.756 56.1818ZM253.665 31.1818V30.1818H253.237L252.942 30.4907L253.665 31.1818ZM278.847 31.1818L279.561 31.8816L281.226 30.1818H278.847V31.1818ZM243.756 67V68H244.176L244.47 67.6998L243.756 67ZM237.892 67V66H237.478L237.185 66.2929L237.892 67ZM199.165 101L198.178 100.836L197.985 102H199.165V101ZM214.619 7.9091V6.9091H213.772L213.633 7.74532L214.619 7.9091ZM236.847 7.9091L237.833 8.07287L238.026 6.9091H236.847V7.9091ZM221.392 101V102H222.24L222.379 101.164L221.392 101ZM242.528 101L241.621 101.421L241.89 102H242.528V101ZM229.074 72L228.401 71.2607L227.858 71.755L228.167 72.4209L229.074 72ZM246.392 56.2273L247.291 55.7892L246.706 54.5888L245.719 55.4879L246.392 56.2273ZM268.21 101V102H269.81L269.109 100.562L268.21 101ZM223.196 82.8492L227.696 56.3492L225.724 56.0144L221.224 82.5144L223.196 82.8492ZM226.71 57.1818H229.756V55.1818H226.71V57.1818ZM230.478 56.873L254.387 31.873L252.942 30.4907L229.033 55.4907L230.478 56.873ZM253.665 32.1818H278.847V30.1818H253.665V32.1818ZM278.132 30.482L243.041 66.3002L244.47 67.6998L279.561 31.8816L278.132 30.482ZM243.756 66H237.892V68H243.756V66ZM237.185 66.2929L221.503 81.9747L222.917 83.3889L238.599 67.7071L237.185 66.2929ZM200.151 101.164L215.606 8.07287L213.633 7.74532L198.178 100.836L200.151 101.164ZM214.619 8.9091H236.847V6.9091H214.619V8.9091ZM235.86 7.74532L220.406 100.836L222.379 101.164L237.833 8.07287L235.86 7.74532ZM221.392 100H199.165V102H221.392V100ZM243.436 100.579L229.981 71.5791L228.167 72.4209L241.621 101.421L243.436 100.579ZM229.747 72.7393L247.065 56.9666L245.719 55.4879L228.401 71.2607L229.747 72.7393ZM245.493 56.6653L267.311 101.438L269.109 100.562L247.291 55.7892L245.493 56.6653ZM268.21 100H242.528V102H268.21V100ZM286.562 98L286.043 98.8546L286.05 98.8584L286.562 98ZM276.472 85.5909L275.531 85.9293V85.9309L276.472 85.5909ZM297.017 34.8182L297.483 35.703L297.487 35.701L297.017 34.8182ZM338.835 39.5L338.063 40.1349L338.066 40.1387L338.835 39.5ZM343.881 65.9091L342.895 65.7421L342.893 65.7552L343.881 65.9091ZM343.017 71.4545V72.4545H343.873L344.005 71.6084L343.017 71.4545ZM282.381 71.4545L281.393 71.298L281.21 72.4545H282.381V71.4545ZM284.426 58.5455V57.5455H283.572L283.438 58.389L284.426 58.5455ZM324.426 58.5455V59.5455H325.284L325.415 58.6975L324.426 58.5455ZM320.153 47.9091L319.617 48.7527L319.625 48.7584L319.634 48.7639L320.153 47.9091ZM307.108 48.0455L307.575 48.9296L307.58 48.9271L307.108 48.0455ZM298.79 59.0455L297.807 58.8589L297.806 58.8663L298.79 59.0455ZM296.381 72.2727L295.397 72.0935L295.395 72.1017L295.394 72.11L296.381 72.2727ZM300.699 84.6364L300.18 85.4914L300.191 85.4976L300.699 84.6364ZM313.29 85.5L313.58 86.4569L313.588 86.4545L313.596 86.452L313.29 85.5ZM317.835 83.0909L318.458 83.8735L318.46 83.8718L317.835 83.0909ZM321.153 79.1364L321.183 78.1368L320.571 78.119L320.277 78.6551L321.153 79.1364ZM341.426 79.7273L342.368 80.064L342.831 78.7678L341.455 78.7277L341.426 79.7273ZM333.835 91.6818L334.536 92.3952L334.539 92.3921L333.835 91.6818ZM321.29 99.5455L321.642 100.481L321.645 100.48L321.29 99.5455ZM304.744 101.318C297.569 101.318 291.698 99.9038 287.075 97.1416L286.05 98.8584C291.063 101.854 297.314 103.318 304.744 103.318V101.318ZM287.082 97.1454C282.493 94.3571 279.275 90.4042 277.412 85.2509L275.531 85.9309C277.547 91.5049 281.057 95.8248 286.043 98.8546L287.082 97.1454ZM277.413 85.2526C275.547 80.0625 275.19 73.8353 276.412 66.5287L274.44 66.1979C273.178 73.7397 273.518 80.3314 275.531 85.9293L277.413 85.2526ZM276.412 66.5287C277.603 59.4444 280.023 53.2831 283.658 48.023L282.013 46.8851C278.193 52.4129 275.674 58.858 274.44 66.1979L276.412 66.5287ZM283.657 48.024C287.326 42.7286 291.932 38.6261 297.483 35.703L296.551 33.9334C290.708 37.0102 285.86 41.332 282.013 46.8851L283.657 48.024ZM297.487 35.701C303.027 32.7541 309.212 31.2727 316.062 31.2727V29.2727C308.913 29.2727 302.401 30.8217 296.547 33.9353L297.487 35.701ZM316.062 31.2727C320.929 31.2727 325.208 32.0294 328.917 33.5189L329.662 31.6629C325.674 30.0615 321.135 29.2727 316.062 29.2727V31.2727ZM328.917 33.5189C332.617 35.0048 335.659 37.2102 338.063 40.1349L339.608 38.8651C336.981 35.6686 333.659 33.2679 329.662 31.6629L328.917 33.5189ZM338.066 40.1387C340.462 43.0252 342.111 46.5959 342.992 50.8831L344.951 50.4805C344.014 45.9193 342.239 42.0355 339.605 38.8613L338.066 40.1387ZM342.992 50.8831C343.87 55.1569 343.849 60.1037 342.895 65.7421L344.867 66.076C345.851 60.26 345.891 55.0553 344.951 50.4805L342.992 50.8831ZM342.893 65.7552L342.029 71.3007L344.005 71.6084L344.869 66.063L342.893 65.7552ZM343.017 70.4545H282.381V72.4545H343.017V70.4545ZM283.368 71.611L285.414 58.702L283.438 58.389L281.393 71.298L283.368 71.611ZM284.426 59.5455H324.426V57.5455H284.426V59.5455ZM325.415 58.6975C325.8 56.1899 325.599 53.8951 324.761 51.848L322.91 52.6065C323.586 54.2565 323.779 56.1737 323.438 58.3934L325.415 58.6975ZM324.761 51.848C323.922 49.803 322.553 48.1964 320.672 47.0543L319.634 48.7639C321.147 49.6824 322.233 50.9546 322.91 52.6065L324.761 51.848ZM320.69 47.0654C318.83 45.8817 316.588 45.3182 314.017 45.3182V47.3182C316.294 47.3182 318.143 47.8153 319.617 48.7527L320.69 47.0654ZM314.017 45.3182C311.399 45.3182 308.934 45.9341 306.636 47.1638L307.58 48.9271C309.585 47.8538 311.726 47.3182 314.017 47.3182V45.3182ZM306.641 47.1614C304.393 48.3493 302.481 49.957 300.91 51.977L302.488 53.2048C303.887 51.4067 305.58 49.984 307.575 48.9296L306.641 47.1614ZM300.91 51.977C299.327 54.0122 298.291 56.3104 297.807 58.8589L299.772 59.232C300.197 56.9926 301.101 54.9878 302.488 53.2048L300.91 51.977ZM297.806 58.8663L295.397 72.0935L297.365 72.4519L299.774 59.2246L297.806 58.8663ZM295.394 72.11C294.89 75.1631 295.017 77.8613 295.85 80.1588L297.73 79.4775C297.047 77.5932 296.901 75.2611 297.367 72.4355L295.394 72.11ZM295.85 80.1588C296.682 82.4576 298.131 84.2482 300.18 85.4914L301.217 83.7814C299.57 82.7821 298.412 81.3606 297.73 79.4775L295.85 80.1588ZM300.191 85.4976C302.238 86.7061 304.809 87.2727 307.835 87.2727V85.2727C305.044 85.2727 302.856 84.7485 301.207 83.7752L300.191 85.4976ZM307.835 87.2727C309.864 87.2727 311.781 87.0032 313.58 86.4569L312.999 84.5431C311.405 85.0271 309.685 85.2727 307.835 85.2727V87.2727ZM313.596 86.452C315.402 85.8714 317.026 85.0127 318.458 83.8735L317.213 82.3083C315.978 83.2904 314.571 84.0377 312.984 84.548L313.596 86.452ZM318.46 83.8718C319.927 82.6978 321.119 81.2774 322.03 79.6176L320.277 78.6551C319.491 80.0862 318.47 81.3022 317.211 82.31L318.46 83.8718ZM321.124 80.1359L341.397 80.7268L341.455 78.7277L321.183 78.1368L321.124 80.1359ZM340.485 79.3905C338.898 83.8268 336.449 87.6837 333.131 90.9716L334.539 92.3921C338.07 88.8921 340.681 84.7793 342.368 80.064L340.485 79.3905ZM333.134 90.9684C329.818 94.2259 325.758 96.7761 320.934 98.6108L321.645 100.48C326.701 98.5572 331.004 95.865 334.536 92.3952L333.134 90.9684ZM320.937 98.6096C316.158 100.409 310.765 101.318 304.744 101.318V103.318C310.966 103.318 316.603 102.379 321.642 100.481L320.937 98.6096ZM357.46 99.9545L357.03 100.857L357.041 100.862L357.46 99.9545ZM350.46 93.0909L349.557 93.5202L349.561 93.5274L350.46 93.0909ZM349.415 81.6364L348.429 81.467L348.428 81.473L349.415 81.6364ZM353.097 71.8636L352.27 71.3003L352.269 71.3024L353.097 71.8636ZM359.778 65.3636L359.248 64.5156L359.244 64.5184L359.778 65.3636ZM378.96 59.7727L379.045 60.7692L379.051 60.7686L378.96 59.7727ZM388.688 58.5909L388.521 57.6048L388.519 57.6052L388.688 58.5909ZM394.324 56.8182L394.844 57.672L394.852 57.6674L394.859 57.6627L394.324 56.8182ZM396.597 53.5455L397.578 53.7375L397.597 53.6424V53.5455H396.597ZM396.597 53.3182L395.609 53.1642L395.597 53.2407V53.3182H396.597ZM377.188 53.1818L377.152 54.1812L377.878 54.2071L378.127 53.5246L377.188 53.1818ZM356.824 52.4545L355.866 52.1672L355.494 53.4077L356.788 53.4539L356.824 52.4545ZM363.369 41.0909L364.103 41.7709L364.106 41.7675L363.369 41.0909ZM375.142 33.1818L375.514 34.1099L375.517 34.1087L375.142 33.1818ZM403.733 31.8636L403.449 32.8224L403.456 32.8245L403.733 31.8636ZM412.778 36.4091L412.147 37.1844L412.157 37.1927L412.778 36.4091ZM418.778 53.5455L419.765 53.7108V53.7072L418.778 53.5455ZM410.824 101V102H411.67L411.81 101.165L410.824 101ZM389.915 101L388.929 100.834L388.733 102H389.915V101ZM391.551 91.2727L392.537 91.4386L392.733 90.2727H391.551V91.2727ZM391.006 91.2727V90.2727H390.482L390.184 90.7035L391.006 91.2727ZM385.233 97.2727L384.638 96.4688L384.633 96.4727L385.233 97.2727ZM390.188 82.1818L389.423 81.5377L389.422 81.5389L390.188 82.1818ZM392.96 76.1818L393.946 76.3526L393.947 76.345L393.948 76.3374L392.96 76.1818ZM394.006 69.5455L394.993 69.7011L395.303 67.7371L393.542 68.6596L394.006 69.5455ZM388.506 71.2273L388.697 72.2089L388.71 72.2063L388.723 72.2035L388.506 71.2273ZM385.142 71.8636L385.302 72.8507L385.313 72.849L385.323 72.8471L385.142 71.8636ZM381.915 72.3636L381.769 71.3743L381.764 71.3751L381.915 72.3636ZM372.369 76.6364L371.613 75.9822L371.612 75.9838L372.369 76.6364ZM370.642 80.5455L371.629 80.7034L371.631 80.6938L371.632 80.6841L370.642 80.5455ZM372.233 85.8182L371.576 86.5718L371.585 86.5797L372.233 85.8182ZM368.915 101.182C364.6 101.182 360.932 100.458 357.88 99.0468L357.041 100.862C360.413 102.421 364.381 103.182 368.915 103.182V101.182ZM357.89 99.0517C354.905 97.6304 352.742 95.5029 351.36 92.6544L349.561 93.5274C351.148 96.8001 353.651 99.2484 357.03 100.857L357.89 99.0517ZM351.363 92.6617C350.023 89.8422 349.665 86.2465 350.401 81.7997L348.428 81.473C347.649 86.1778 347.988 90.2185 349.557 93.5202L351.363 92.6617ZM350.4 81.8058C351.048 78.0351 352.233 74.919 353.924 72.4249L352.269 71.3024C350.385 74.081 349.114 77.48 348.429 81.467L350.4 81.8058ZM353.923 72.427C355.667 69.8692 357.796 67.8 360.313 66.2089L359.244 64.5184C356.488 66.2606 354.163 68.5247 352.27 71.3003L353.923 72.427ZM360.308 66.2116C362.885 64.6013 365.762 63.3664 368.947 62.5112L368.428 60.5797C365.067 61.4821 362.005 62.7926 359.248 64.5156L360.308 66.2116ZM368.947 62.5112C372.159 61.6487 375.525 61.0676 379.045 60.7692L378.876 58.7763C375.244 59.084 371.761 59.6846 368.428 60.5797L368.947 62.5112ZM379.051 60.7686C383.064 60.4038 386.335 60.0071 388.856 59.5766L388.519 57.6052C386.071 58.0232 382.857 58.4144 378.87 58.7768L379.051 60.7686ZM388.854 59.577C391.414 59.1451 393.441 58.5279 394.844 57.672L393.803 55.9644C392.722 56.6236 390.991 57.1883 388.521 57.6048L388.854 59.577ZM394.859 57.6627C396.324 56.7337 397.25 55.4116 397.578 53.7375L395.615 53.3534C395.397 54.4672 394.808 55.3269 393.788 55.9737L394.859 57.6627ZM397.597 53.5455V53.3182H395.597V53.5455H397.597ZM397.585 53.4722C397.984 50.9094 397.449 48.7371 395.779 47.178L394.414 48.6401C395.471 49.6266 395.936 51.0603 395.609 53.1642L397.585 53.4722ZM395.779 47.178C394.16 45.6671 391.825 45 388.96 45V47C391.55 47 393.306 47.6056 394.414 48.6401L395.779 47.178ZM388.96 45C385.903 45 383.228 45.67 380.98 47.0583L382.031 48.7599C383.905 47.6027 386.199 47 388.96 47V45ZM380.98 47.0583C378.732 48.4472 377.144 50.3823 376.248 52.8391L378.127 53.5246C378.867 51.4965 380.159 49.9164 382.031 48.7599L380.98 47.0583ZM377.223 52.1825L356.86 51.4552L356.788 53.4539L377.152 54.1812L377.223 52.1825ZM357.782 52.7419C359.009 48.6497 361.113 44.9952 364.103 41.7709L362.636 40.411C359.444 43.8532 357.184 47.7745 355.866 52.1672L357.782 52.7419ZM364.106 41.7675C367.084 38.5266 370.878 35.9702 375.514 34.1099L374.77 32.2537C369.891 34.2116 365.837 36.928 362.633 40.4143L364.106 41.7675ZM375.517 34.1087C380.163 32.2267 385.562 31.2727 391.733 31.2727V29.2727C385.358 29.2727 379.696 30.2581 374.767 32.255L375.517 34.1087ZM391.733 31.2727C396.078 31.2727 399.98 31.7938 403.449 32.8224L404.017 30.9049C400.334 29.8124 396.236 29.2727 391.733 29.2727V31.2727ZM403.456 32.8245C406.925 33.824 409.813 35.2832 412.147 37.1844L413.41 35.6339C410.834 33.5351 407.693 31.9639 404.01 30.9027L403.456 32.8245ZM412.157 37.1927C414.503 39.0524 416.163 41.327 417.158 44.0275L419.035 43.3361C417.909 40.279 416.023 37.7052 413.4 35.6254L412.157 37.1927ZM417.158 44.0275C418.147 46.7119 418.376 49.8197 417.792 53.3837L419.765 53.7072C420.393 49.8772 420.167 46.4093 419.035 43.3361L417.158 44.0275ZM417.792 53.3801L409.838 100.835L411.81 101.165L419.765 53.7108L417.792 53.3801ZM410.824 100H389.915V102H410.824V100ZM390.901 101.166L392.537 91.4386L390.565 91.1068L388.929 100.834L390.901 101.166ZM391.551 90.2727H391.006V92.2727H391.551V90.2727ZM390.184 90.7035C388.607 92.981 386.758 94.9005 384.638 96.4688L385.828 98.0767C388.132 96.3722 390.132 94.2917 391.828 91.8419L390.184 90.7035ZM384.633 96.4727C382.549 98.0354 380.202 99.2108 377.582 99.9967L378.157 101.912C380.992 101.062 383.553 99.7828 385.833 98.0727L384.633 96.4727ZM377.582 99.9967C374.96 100.783 372.073 101.182 368.915 101.182V103.182C372.241 103.182 375.324 102.762 378.157 101.912L377.582 99.9967ZM378.278 88.6364C380.755 88.6364 383.111 88.1206 385.336 87.089L384.494 85.2746C382.537 86.1824 380.468 86.6364 378.278 86.6364V88.6364ZM385.336 87.089C387.554 86.0602 389.431 84.6386 390.953 82.8247L389.422 81.5389C388.095 83.119 386.457 84.3641 384.494 85.2746L385.336 87.089ZM390.952 82.826C392.524 80.9602 393.522 78.7959 393.946 76.3526L391.975 76.011C391.611 78.1132 390.76 79.9489 389.423 81.5377L390.952 82.826ZM393.948 76.3374L394.993 69.7011L393.018 69.3898L391.972 76.0262L393.948 76.3374ZM393.542 68.6596C392.986 68.9507 392.253 69.2311 391.326 69.4919L391.867 71.4172C392.879 71.1325 393.753 70.8068 394.47 70.4313L393.542 68.6596ZM391.326 69.4919C390.376 69.7591 389.364 70.0122 388.289 70.2511L388.723 72.2035C389.83 71.9575 390.878 71.6954 391.867 71.4172L391.326 69.4919ZM388.315 70.2457C387.227 70.4571 386.109 70.6686 384.961 70.8802L385.323 72.8471C386.478 72.6344 387.602 72.4217 388.697 72.2089L388.315 70.2457ZM384.982 70.8765C383.865 71.0576 382.794 71.2235 381.769 71.3743L382.06 73.353C383.096 73.2007 384.176 73.0333 385.302 72.8507L384.982 70.8765ZM381.764 71.3751C379.518 71.7182 377.537 72.253 375.835 72.9917L376.631 74.8264C378.141 74.1713 379.948 73.6757 382.066 73.3522L381.764 71.3751ZM375.835 72.9917C374.116 73.7377 372.697 74.7287 371.613 75.9822L373.126 77.2905C373.981 76.3016 375.138 75.4744 376.631 74.8264L375.835 72.9917ZM371.612 75.9838C370.539 77.2294 369.889 78.7141 369.652 80.4068L371.632 80.6841C371.82 79.3465 372.321 78.2251 373.127 77.2889L371.612 75.9838ZM369.655 80.3875C369.25 82.9148 369.832 85.051 371.576 86.5718L372.89 85.0646C371.785 84.1006 371.307 82.7215 371.629 80.7034L369.655 80.3875ZM371.585 86.5797C373.25 87.9968 375.528 88.6364 378.278 88.6364V86.6364C375.817 86.6364 374.064 86.0638 372.881 85.0566L371.585 86.5797ZM465.324 67.5455V66.5455H463.524L464.475 68.0738L465.324 67.5455ZM483.506 67.5455L484.337 66.9899L484.04 66.5455H483.506V67.5455ZM490.097 77.4091L489.265 77.9647L489.273 77.9767L489.282 77.9885L490.097 77.4091ZM498.369 89.0455L499.196 88.4827L499.19 88.4743L499.184 88.466L498.369 89.0455ZM511.46 108.273V109.273H513.351L512.287 107.71L511.46 108.273ZM491.097 108.273L490.277 108.846L490.576 109.273H491.097V108.273ZM481.96 95.2273L481.087 95.7151L481.112 95.7594L481.141 95.8009L481.96 95.2273ZM476.778 85.9545L477.651 85.4667L477.64 85.4462L477.627 85.4262L476.778 85.9545ZM519.778 55.9091L520.764 56.0759L520.765 56.0716L519.778 55.9091ZM509.778 81.3182L508.967 80.7343L508.966 80.7349L509.778 81.3182ZM491.733 96.9545L491.286 96.0601L491.284 96.0609L491.733 96.9545ZM433.006 79.8636L432.073 80.2237L432.074 80.227L433.006 79.8636ZM431.369 53.2727L432.356 53.4362V53.4337L431.369 53.2727ZM441.233 27.8182L440.42 27.2359L440.418 27.2383L441.233 27.8182ZM459.369 12.0454L459.818 12.9391L459.82 12.9384L459.369 12.0454ZM504.506 12.4091L503.981 13.2603L503.983 13.2615L504.506 12.4091ZM497.278 53.2727L498.264 53.4402L498.266 53.4313L497.278 53.2727ZM497.278 38.5L496.303 38.7216L496.305 38.7286L497.278 38.5ZM491.915 29.4545L491.303 30.2458L491.309 30.2502L491.915 29.4545ZM468.688 29.8636L469.207 30.7181L469.209 30.7169L468.688 29.8636ZM459.188 39.9545L460.053 40.4558L460.054 40.4532L459.188 39.9545ZM453.869 55.9091L454.855 56.0809L454.857 56.0673L453.869 55.9091ZM453.778 70.6818L452.807 70.9208L452.809 70.9279L453.778 70.6818ZM459.369 79.5909L458.778 80.3973L458.784 80.4016L459.369 79.5909ZM491.869 69.1818L491.006 68.6779L491.003 68.6824L491.869 69.1818ZM465.324 68.5455H483.506V66.5455H465.324V68.5455ZM482.674 68.101L489.265 77.9647L490.928 76.8535L484.337 66.9899L482.674 68.101ZM489.282 77.9885L497.554 89.6249L499.184 88.466L490.912 76.8297L489.282 77.9885ZM497.543 89.6082L510.634 108.836L512.287 107.71L499.196 88.4827L497.543 89.6082ZM511.46 107.273H491.097V109.273H511.46V107.273ZM491.916 107.699L482.779 94.6536L481.141 95.8009L490.277 108.846L491.916 107.699ZM482.833 94.7394L477.651 85.4667L475.905 86.4424L481.087 95.7151L482.833 94.7394ZM477.627 85.4262L466.173 67.0172L464.475 68.0738L475.929 86.4828L477.627 85.4262ZM518.792 55.7423C517.116 65.6512 513.831 73.971 508.967 80.7343L510.59 81.9021C515.665 74.8472 519.047 66.2276 520.764 56.0759L518.792 55.7423ZM508.966 80.7349C504.115 87.4911 498.222 92.5921 491.286 96.0601L492.18 97.849C499.426 94.226 505.563 88.9028 510.591 81.9015L508.966 80.7349ZM491.284 96.0609C484.367 99.5344 476.93 101.273 468.96 101.273V103.273C477.233 103.273 484.978 101.466 492.182 97.8482L491.284 96.0609ZM468.96 101.273C460.537 101.273 453.299 99.3991 447.207 95.6913L446.168 97.3997C452.622 101.328 460.232 103.273 468.96 103.273V101.273ZM447.207 95.6913C441.135 91.995 436.712 86.6137 433.937 79.5003L432.074 80.227C434.996 87.7197 439.694 93.4595 446.168 97.3997L447.207 95.6913ZM433.939 79.5036C431.203 72.4156 430.648 63.7437 432.356 53.4362L430.383 53.1093C428.636 63.6502 429.172 72.7056 432.073 80.2237L433.939 79.5036ZM432.356 53.4337C433.973 43.5255 437.212 35.191 442.048 28.3981L440.418 27.2383C435.375 34.3241 432.039 42.9593 430.382 53.1117L432.356 53.4337ZM442.046 28.4004C446.928 21.5832 452.852 16.437 459.818 12.9391L458.921 11.1518C451.644 14.8054 445.477 20.1744 440.42 27.2359L442.046 28.4004ZM459.82 12.9384C466.828 9.40428 474.34 7.63637 482.369 7.63637V5.63637C474.035 5.63637 466.213 7.47452 458.919 11.1525L459.82 12.9384ZM482.369 7.63637C490.73 7.63637 497.92 9.52391 503.981 13.2603L505.03 11.5579C498.606 7.59732 491.039 5.63637 482.369 5.63637V7.63637ZM503.983 13.2615C510.055 16.987 514.464 22.3976 517.209 29.5405L519.076 28.8231C516.184 21.2994 511.502 15.5282 505.029 11.5567L503.983 13.2615ZM517.209 29.5405C519.944 36.6594 520.5 45.3775 518.792 55.7465L520.765 56.0716C522.511 45.471 521.976 36.3709 519.076 28.8231L517.209 29.5405ZM498.266 53.4313C499.217 47.5063 499.231 42.4413 498.252 38.2714L496.305 38.7286C497.204 42.5587 497.218 47.3422 496.291 53.1141L498.266 53.4313ZM498.254 38.2784C497.305 34.1027 495.413 30.8611 492.521 28.6589L491.309 30.2502C493.75 32.1086 495.434 34.8973 496.303 38.7216L498.254 38.2784ZM492.526 28.6633C489.642 26.4347 485.94 25.3636 481.506 25.3636V27.3636C485.617 27.3636 488.854 28.3532 491.303 30.2458L492.526 28.6633ZM481.506 25.3636C476.605 25.3636 472.15 26.5756 468.166 29.0103L469.209 30.7169C472.861 28.485 476.952 27.3636 481.506 27.3636V25.3636ZM468.168 29.0092C464.216 31.4121 460.937 34.908 458.321 39.4558L460.054 40.4532C462.529 36.1526 465.583 32.9212 469.207 30.7181L468.168 29.0092ZM458.322 39.4533C455.702 43.9755 453.897 49.4161 452.882 55.7509L454.857 56.0673C455.842 49.9172 457.582 44.7214 460.053 40.4558L458.322 39.4533ZM452.884 55.7373C451.84 61.7232 451.793 66.7986 452.807 70.9208L454.749 70.4428C453.825 66.6863 453.838 61.9131 454.854 56.0809L452.884 55.7373ZM452.809 70.9279C453.854 75.045 455.828 78.2338 458.778 80.3973L459.961 78.7845C457.456 76.9481 455.703 74.1974 454.748 70.4358L452.809 70.9279ZM458.784 80.4016C461.72 82.5224 465.41 83.5455 469.778 83.5455V81.5455C465.723 81.5455 462.473 80.5988 459.955 78.7802L458.784 80.4016ZM469.778 83.5455C474.645 83.5455 479.053 82.3658 482.978 79.992L481.943 78.2807C478.352 80.4524 474.306 81.5455 469.778 81.5455V83.5455ZM482.978 79.992C486.9 77.6198 490.149 74.1694 492.736 69.6812L491.003 68.6824C488.56 72.9215 485.536 76.1075 481.943 78.2807L482.978 79.992ZM492.733 69.6857C495.352 65.1956 497.188 59.7724 498.264 53.4402L496.293 53.1052C495.247 59.2579 493.477 64.4408 491.006 68.6779L492.733 69.6857ZM575.835 70.8636L574.849 70.6987L574.847 70.7082L575.835 70.8636ZM582.472 31.1818V30.1818H581.625L581.485 31.0169L582.472 31.1818ZM604.653 31.1818L605.64 31.3462L605.834 30.1818H604.653V31.1818ZM593.017 101V102H593.864L594.003 101.164L593.017 101ZM571.835 101L570.848 100.838L570.657 102H571.835V101ZM573.972 88L574.958 88.1622L575.149 87H573.972V88ZM573.244 88V87H572.628L572.351 87.5503L573.244 88ZM563.744 98.1818L564.255 99.0415L564.26 99.0388L563.744 98.1818ZM530.699 89.5L529.752 89.8206L529.755 89.8294L530.699 89.5ZM529.972 75.6818L528.985 75.5166L528.984 75.5229L529.972 75.6818ZM537.426 31.1818V30.1818H536.58L536.44 31.0166L537.426 31.1818ZM559.653 31.1818L560.64 31.346L560.834 30.1818H559.653V31.1818ZM552.972 71.3182L551.985 71.1539L551.983 71.1679L552.972 71.3182ZM554.472 80.2727L553.661 80.8582L553.666 80.8655L554.472 80.2727ZM568.244 82.0909L568.692 82.9854L568.703 82.9797L568.244 82.0909ZM573.153 77.7727L572.34 77.1915L572.338 77.194L573.153 77.7727ZM576.822 71.0286L583.458 31.3468L581.485 31.0169L574.849 70.6987L576.822 71.0286ZM582.472 32.1818H604.653V30.1818H582.472V32.1818ZM603.667 31.0174L592.031 100.836L594.003 101.164L605.64 31.3462L603.667 31.0174ZM593.017 100H571.835V102H593.017V100ZM572.822 101.162L574.958 88.1622L572.985 87.8378L570.848 100.838L572.822 101.162ZM573.972 87H573.244V89H573.972V87ZM572.351 87.5503C570.286 91.6508 567.252 94.905 563.229 97.3249L564.26 99.0388C568.6 96.4283 571.899 92.8947 574.137 88.4497L572.351 87.5503ZM563.234 97.3221C559.218 99.708 554.685 100.909 549.608 100.909V102.909C555.016 102.909 559.907 101.625 564.255 99.0415L563.234 97.3221ZM549.608 100.909C545.006 100.909 541.211 99.8554 538.166 97.8067L537.05 99.466C540.49 101.781 544.695 102.909 549.608 102.909V100.909ZM538.166 97.8067C535.114 95.753 532.94 92.8885 531.643 89.1706L529.755 89.8294C531.185 93.9296 533.617 97.1561 537.05 99.466L538.166 97.8067ZM531.646 89.1794C530.378 85.4318 530.129 80.9971 530.959 75.8407L528.984 75.5229C528.117 80.912 528.353 85.6894 529.752 89.8206L531.646 89.1794ZM530.958 75.847L538.412 31.347L536.44 31.0166L528.985 75.5166L530.958 75.847ZM537.426 32.1818H559.653V30.1818H537.426V32.1818ZM558.667 31.0176L551.985 71.1539L553.958 71.4824L560.64 31.346L558.667 31.0176ZM551.983 71.1679C551.385 75.1045 551.877 78.388 553.661 80.8582L555.282 79.6872C553.915 77.7939 553.407 75.1076 553.96 71.4685L551.983 71.1679ZM553.666 80.8655C555.51 83.3701 558.368 84.5455 562.017 84.5455V82.5455C558.818 82.5455 556.645 81.539 555.277 79.6799L553.666 80.8655ZM562.017 84.5455C564.381 84.5455 566.61 84.026 568.692 82.9854L567.797 81.1965C565.999 82.0953 564.077 82.5455 562.017 82.5455V84.5455ZM568.703 82.9797C570.792 81.9023 572.548 80.3532 573.969 78.3515L572.338 77.194C571.092 78.9498 569.575 80.2795 567.786 81.2021L568.703 82.9797ZM573.967 78.354C575.435 76.2992 576.379 73.8444 576.823 71.019L574.847 70.7082C574.443 73.2768 573.599 75.4281 572.34 77.1915L573.967 78.354ZM607.165 101L606.178 100.836L605.984 102H607.165V101ZM618.801 31.1818V30.1818H617.954L617.815 31.0174L618.801 31.1818ZM641.028 31.1818L642.015 31.3462L642.209 30.1818H641.028V31.1818ZM629.392 101V102H630.239L630.378 101.164L629.392 101ZM621.483 12.3636L622.472 12.5079L622.473 12.5065L621.483 12.3636ZM642.028 4.86364L641.295 5.54329L641.3 5.54901L642.028 4.86364ZM644.301 12.3636L643.311 12.2208L643.31 12.2302L643.309 12.2396L644.301 12.3636ZM639.938 19.8636L639.303 19.0909L639.298 19.0947L639.938 19.8636ZM608.151 101.164L619.788 31.3462L617.815 31.0174L606.178 100.836L608.151 101.164ZM618.801 32.1818H641.028V30.1818H618.801V32.1818ZM640.042 31.0174L628.406 100.836L630.378 101.164L642.015 31.3462L640.042 31.0174ZM629.392 100H607.165V102H629.392V100ZM631.483 22C628.577 22 626.29 21.0476 624.529 19.1779L623.073 20.5493C625.251 22.8615 628.086 24 631.483 24V22ZM624.529 19.1779C622.774 17.3153 622.091 15.1232 622.472 12.5079L620.493 12.2193C620.026 15.4223 620.889 18.2302 623.073 20.5493L624.529 19.1779ZM622.473 12.5065C622.857 9.8429 624.195 7.56066 626.567 5.64089L625.308 4.0864C622.589 6.28784 620.957 9.0056 620.493 12.2208L622.473 12.5065ZM626.567 5.64089C628.944 3.71674 631.557 2.77274 634.438 2.77274V0.772736C631.075 0.772736 628.022 1.88934 625.308 4.0864L626.567 5.64089ZM634.438 2.77274C637.348 2.77274 639.599 3.71296 641.295 5.54329L642.762 4.18402C640.64 1.89314 637.83 0.772736 634.438 0.772736V2.77274ZM641.3 5.54901C643.019 7.37539 643.695 9.56563 643.311 12.2208L645.291 12.5065C645.756 9.28287 644.916 6.47311 642.757 4.17828L641.3 5.54901ZM643.309 12.2396C642.981 14.8626 641.677 17.1407 639.303 19.0909L640.572 20.6364C643.289 18.4047 644.894 15.6829 645.293 12.4877L643.309 12.2396ZM639.298 19.0947C636.953 21.044 634.359 22 631.483 22V24C634.85 24 637.891 22.8651 640.577 20.6326L639.298 19.0947ZM643.858 101L642.871 100.841L642.684 102H643.858V101ZM645.903 88.3182L645.191 87.616L644.967 87.8435L644.916 88.159L645.903 88.3182ZM684.767 48.9091L685.479 49.6113L685.621 49.4677L685.695 49.2805L684.767 48.9091ZM684.949 48.4545L685.877 48.8259L686.426 47.4545H684.949V48.4545ZM653.676 48.4545L652.69 48.2859L652.491 49.4545H653.676V48.4545ZM656.631 31.1818V30.1818H655.787L655.645 31.0132L656.631 31.1818ZM714.358 31.1818L715.346 31.3368L715.527 30.1818H714.358V31.1818ZM712.176 45.0909L712.901 45.7801L713.116 45.5541L713.164 45.2459L712.176 45.0909ZM675.858 83.2727L675.133 82.5835L675.001 82.7228L674.93 82.9013L675.858 83.2727ZM675.676 83.7273L674.748 83.3559L674.199 84.7273H675.676V83.7273ZM706.767 83.7273L707.754 83.8858L707.94 82.7273H706.767V83.7273ZM703.994 101V102H704.847L704.982 101.159L703.994 101ZM644.845 101.159L646.891 88.4774L644.916 88.159L642.871 100.841L644.845 101.159ZM646.615 89.0203L685.479 49.6113L684.055 48.2069L645.191 87.616L646.615 89.0203ZM685.695 49.2805L685.877 48.8259L684.02 48.0832L683.839 48.5377L685.695 49.2805ZM684.949 47.4545H653.676V49.4545H684.949V47.4545ZM654.662 48.6231L657.616 31.3504L655.645 31.0132L652.69 48.2859L654.662 48.6231ZM656.631 32.1818H714.358V30.1818H656.631V32.1818ZM713.37 31.0268L711.188 44.9359L713.164 45.2459L715.346 31.3368L713.37 31.0268ZM711.452 44.4017L675.133 82.5835L676.583 83.9619L712.901 45.7801L711.452 44.4017ZM674.93 82.9013L674.748 83.3559L676.605 84.0987L676.786 83.6441L674.93 82.9013ZM675.676 84.7273H706.767V82.7273H675.676V84.7273ZM705.78 83.5688L703.007 100.841L704.982 101.159L707.754 83.8858L705.78 83.5688ZM703.994 100H643.858V102H703.994V100Z" fill="white"/>
</g>
</g>
<defs>
<filter id="filter0_d_31_3" x="0.860107" y="0.772736" width="718.667" height="116.5" filterUnits="userSpaceOnUse" color-interpolation-filters="sRGB">
<feFlood flood-opacity="0" result="BackgroundImageFix"/>
<feColorMatrix in="SourceAlpha" type="matrix" values="0 0 0 0 0 0 0 0 0 0 0 0 0 0 0 0 0 0 127 0" result="hardAlpha"/>
<feOffset dy="4"/>
<feGaussianBlur stdDeviation="2"/>
<feComposite in2="hardAlpha" operator="out"/>
<feColorMatrix type="matrix" values="0 0 0 0 1 0 0 0 0 0.9875 0 0 0 0 0.9875 0 0 0 0.25 0"/>
<feBlend mode="normal" in2="BackgroundImageFix" result="effect1_dropShadow_31_3"/>
<feBlend mode="normal" in="SourceGraphic" in2="effect1_dropShadow_31_3" result="shape"/>
</filter>
</defs>
</svg>
